<mxfile host="Electron" modified="2024-06-06T16:36:45.091Z" agent="Mozilla/5.0 (Windows NT 10.0; Win64; x64) AppleWebKit/537.36 (KHTML, like Gecko) draw.io/24.4.13 Chrome/124.0.6367.207 Electron/30.0.6 Safari/537.36" etag="4l-8pTGRqJvus3kbwh0E" version="24.4.13" type="device">
  <diagram name="Page-1" id="1X28ZafjzpVTvF5lnrxb">
    <mxGraphModel dx="478" dy="279" grid="1" gridSize="5" guides="1" tooltips="1" connect="1" arrows="1" fold="1" page="1" pageScale="1" pageWidth="850" pageHeight="1100" math="0" shadow="0">
      <root>
        <mxCell id="0" />
        <mxCell id="1" parent="0" />
        <mxCell id="rEkYpKIjq7FoAjk0Uec6-6" value="" style="endArrow=none;html=1;rounded=0;entryX=0.5;entryY=1;entryDx=0;entryDy=0;strokeColor=#0000FF;" parent="1" edge="1">
          <mxGeometry width="50" height="50" relative="1" as="geometry">
            <mxPoint x="390.20000000000005" y="310" as="sourcePoint" />
            <mxPoint x="390.20000000000005" y="275" as="targetPoint" />
          </mxGeometry>
        </mxCell>
        <mxCell id="rEkYpKIjq7FoAjk0Uec6-7" value="" style="endArrow=none;html=1;rounded=0;strokeColor=#0000FF;" parent="1" edge="1">
          <mxGeometry width="50" height="50" relative="1" as="geometry">
            <mxPoint x="390.20000000000005" y="310" as="sourcePoint" />
            <mxPoint x="410.20000000000005" y="310" as="targetPoint" />
          </mxGeometry>
        </mxCell>
        <mxCell id="rEkYpKIjq7FoAjk0Uec6-8" value="" style="endArrow=none;html=1;rounded=0;strokeColor=#0000FF;" parent="1" edge="1">
          <mxGeometry width="50" height="50" relative="1" as="geometry">
            <mxPoint x="390.20000000000005" y="330" as="sourcePoint" />
            <mxPoint x="410.20000000000005" y="330" as="targetPoint" />
          </mxGeometry>
        </mxCell>
        <mxCell id="rEkYpKIjq7FoAjk0Uec6-9" value="" style="endArrow=none;html=1;rounded=0;strokeColor=#0000FF;" parent="1" edge="1">
          <mxGeometry width="50" height="50" relative="1" as="geometry">
            <mxPoint x="410.20000000000005" y="310" as="sourcePoint" />
            <mxPoint x="410.20000000000005" y="330" as="targetPoint" />
          </mxGeometry>
        </mxCell>
        <mxCell id="rEkYpKIjq7FoAjk0Uec6-10" value="" style="endArrow=none;html=1;rounded=0;strokeColor=#0000FF;" parent="1" edge="1">
          <mxGeometry width="50" height="50" relative="1" as="geometry">
            <mxPoint x="390" y="330" as="sourcePoint" />
            <mxPoint x="390" y="350" as="targetPoint" />
          </mxGeometry>
        </mxCell>
        <mxCell id="rEkYpKIjq7FoAjk0Uec6-11" value="" style="endArrow=none;html=1;rounded=0;strokeColor=#0000FF;" parent="1" edge="1">
          <mxGeometry width="50" height="50" relative="1" as="geometry">
            <mxPoint x="370.20000000000005" y="350" as="sourcePoint" />
            <mxPoint x="370.20000000000005" y="370" as="targetPoint" />
          </mxGeometry>
        </mxCell>
        <mxCell id="rEkYpKIjq7FoAjk0Uec6-12" value="" style="endArrow=none;html=1;rounded=0;strokeColor=#0000FF;" parent="1" edge="1">
          <mxGeometry width="50" height="50" relative="1" as="geometry">
            <mxPoint x="370.4" y="350" as="sourcePoint" />
            <mxPoint x="390.4" y="350" as="targetPoint" />
          </mxGeometry>
        </mxCell>
        <mxCell id="rEkYpKIjq7FoAjk0Uec6-13" value="" style="endArrow=none;html=1;rounded=0;strokeColor=#0000FF;" parent="1" edge="1">
          <mxGeometry width="50" height="50" relative="1" as="geometry">
            <mxPoint x="370.4" y="370" as="sourcePoint" />
            <mxPoint x="390.4" y="370" as="targetPoint" />
          </mxGeometry>
        </mxCell>
        <mxCell id="rEkYpKIjq7FoAjk0Uec6-15" value="" style="endArrow=none;html=1;rounded=0;strokeColor=#0000FF;" parent="1" edge="1">
          <mxGeometry width="50" height="50" relative="1" as="geometry">
            <mxPoint x="390" y="370" as="sourcePoint" />
            <mxPoint x="390.20000000000005" y="410" as="targetPoint" />
          </mxGeometry>
        </mxCell>
        <mxCell id="rEkYpKIjq7FoAjk0Uec6-16" value="" style="endArrow=none;html=1;rounded=0;strokeColor=#0000FF;" parent="1" edge="1">
          <mxGeometry width="50" height="50" relative="1" as="geometry">
            <mxPoint x="370.4" y="410" as="sourcePoint" />
            <mxPoint x="390.4" y="410" as="targetPoint" />
          </mxGeometry>
        </mxCell>
        <mxCell id="rEkYpKIjq7FoAjk0Uec6-17" value="" style="endArrow=none;html=1;rounded=0;strokeColor=#0000FF;" parent="1" edge="1">
          <mxGeometry width="50" height="50" relative="1" as="geometry">
            <mxPoint x="370.20000000000005" y="410" as="sourcePoint" />
            <mxPoint x="370.20000000000005" y="430" as="targetPoint" />
          </mxGeometry>
        </mxCell>
        <mxCell id="rEkYpKIjq7FoAjk0Uec6-21" value="" style="endArrow=none;html=1;rounded=0;strokeColor=#0000FF;" parent="1" edge="1">
          <mxGeometry width="50" height="50" relative="1" as="geometry">
            <mxPoint x="330.20000000000005" y="430" as="sourcePoint" />
            <mxPoint x="370.20000000000005" y="430" as="targetPoint" />
          </mxGeometry>
        </mxCell>
        <mxCell id="rEkYpKIjq7FoAjk0Uec6-22" value="" style="endArrow=none;html=1;rounded=0;strokeColor=#0000FF;" parent="1" edge="1">
          <mxGeometry width="50" height="50" relative="1" as="geometry">
            <mxPoint x="270.20000000000005" y="390" as="sourcePoint" />
            <mxPoint x="330.20000000000005" y="390" as="targetPoint" />
          </mxGeometry>
        </mxCell>
        <mxCell id="rEkYpKIjq7FoAjk0Uec6-23" value="" style="endArrow=none;html=1;rounded=0;strokeColor=#0000FF;" parent="1" edge="1">
          <mxGeometry width="50" height="50" relative="1" as="geometry">
            <mxPoint x="330" y="390" as="sourcePoint" />
            <mxPoint x="330.20000000000005" y="430" as="targetPoint" />
          </mxGeometry>
        </mxCell>
        <mxCell id="rEkYpKIjq7FoAjk0Uec6-25" value="" style="endArrow=none;html=1;rounded=0;strokeColor=#0000FF;" parent="1" edge="1">
          <mxGeometry width="50" height="50" relative="1" as="geometry">
            <mxPoint x="270" y="390" as="sourcePoint" />
            <mxPoint x="270.20000000000005" y="430" as="targetPoint" />
          </mxGeometry>
        </mxCell>
        <mxCell id="rEkYpKIjq7FoAjk0Uec6-27" value="" style="endArrow=none;html=1;rounded=0;strokeColor=#0000FF;" parent="1" edge="1">
          <mxGeometry width="50" height="50" relative="1" as="geometry">
            <mxPoint x="270.20000000000005" y="430" as="sourcePoint" />
            <mxPoint x="290.20000000000005" y="430" as="targetPoint" />
          </mxGeometry>
        </mxCell>
        <mxCell id="rEkYpKIjq7FoAjk0Uec6-28" value="" style="endArrow=none;html=1;rounded=0;strokeColor=#0000FF;" parent="1" edge="1">
          <mxGeometry width="50" height="50" relative="1" as="geometry">
            <mxPoint x="290.20000000000005" y="430" as="sourcePoint" />
            <mxPoint x="290.20000000000005" y="450" as="targetPoint" />
          </mxGeometry>
        </mxCell>
        <mxCell id="rEkYpKIjq7FoAjk0Uec6-31" value="" style="endArrow=none;html=1;rounded=0;entryX=0.5;entryY=0;entryDx=0;entryDy=0;strokeColor=#0000FF;" parent="1" edge="1">
          <mxGeometry width="50" height="50" relative="1" as="geometry">
            <mxPoint x="390.20000000000005" y="250" as="sourcePoint" />
            <mxPoint x="390.20000000000005" y="265" as="targetPoint" />
          </mxGeometry>
        </mxCell>
        <mxCell id="rEkYpKIjq7FoAjk0Uec6-32" value="" style="endArrow=none;html=1;rounded=0;strokeColor=#0000FF;" parent="1" edge="1">
          <mxGeometry width="50" height="50" relative="1" as="geometry">
            <mxPoint x="350.20000000000005" y="250" as="sourcePoint" />
            <mxPoint x="390.20000000000005" y="250" as="targetPoint" />
          </mxGeometry>
        </mxCell>
        <mxCell id="rEkYpKIjq7FoAjk0Uec6-33" value="" style="endArrow=none;html=1;rounded=0;strokeColor=#0000FF;" parent="1" edge="1">
          <mxGeometry width="50" height="50" relative="1" as="geometry">
            <mxPoint x="350.20000000000005" y="250" as="sourcePoint" />
            <mxPoint x="350.20000000000005" y="330" as="targetPoint" />
          </mxGeometry>
        </mxCell>
        <mxCell id="rEkYpKIjq7FoAjk0Uec6-34" value="" style="endArrow=none;html=1;rounded=0;strokeColor=#0000FF;" parent="1" edge="1">
          <mxGeometry width="50" height="50" relative="1" as="geometry">
            <mxPoint x="310.20000000000005" y="330" as="sourcePoint" />
            <mxPoint x="350.20000000000005" y="330" as="targetPoint" />
          </mxGeometry>
        </mxCell>
        <mxCell id="rEkYpKIjq7FoAjk0Uec6-35" value="" style="endArrow=none;html=1;rounded=0;strokeColor=#0000FF;" parent="1" edge="1">
          <mxGeometry width="50" height="50" relative="1" as="geometry">
            <mxPoint x="290.4" y="310" as="sourcePoint" />
            <mxPoint x="310.4" y="310" as="targetPoint" />
          </mxGeometry>
        </mxCell>
        <mxCell id="rEkYpKIjq7FoAjk0Uec6-36" value="" style="endArrow=none;html=1;rounded=0;strokeColor=#0000FF;" parent="1" edge="1">
          <mxGeometry width="50" height="50" relative="1" as="geometry">
            <mxPoint x="310.20000000000005" y="310" as="sourcePoint" />
            <mxPoint x="310.20000000000005" y="330" as="targetPoint" />
          </mxGeometry>
        </mxCell>
        <mxCell id="rEkYpKIjq7FoAjk0Uec6-37" value="" style="endArrow=none;html=1;rounded=0;strokeColor=#0000FF;" parent="1" edge="1">
          <mxGeometry width="50" height="50" relative="1" as="geometry">
            <mxPoint x="290.20000000000005" y="210" as="sourcePoint" />
            <mxPoint x="290" y="310" as="targetPoint" />
          </mxGeometry>
        </mxCell>
        <mxCell id="rEkYpKIjq7FoAjk0Uec6-38" value="" style="endArrow=none;html=1;rounded=0;strokeColor=#0000FF;" parent="1" edge="1">
          <mxGeometry width="50" height="50" relative="1" as="geometry">
            <mxPoint x="290.20000000000005" y="210" as="sourcePoint" />
            <mxPoint x="350.20000000000005" y="210" as="targetPoint" />
          </mxGeometry>
        </mxCell>
        <mxCell id="rEkYpKIjq7FoAjk0Uec6-39" value="" style="endArrow=none;html=1;rounded=0;strokeColor=#0000FF;" parent="1" edge="1">
          <mxGeometry width="50" height="50" relative="1" as="geometry">
            <mxPoint x="350.20000000000005" y="190" as="sourcePoint" />
            <mxPoint x="350.20000000000005" y="210" as="targetPoint" />
          </mxGeometry>
        </mxCell>
        <mxCell id="rEkYpKIjq7FoAjk0Uec6-40" value="" style="endArrow=none;html=1;rounded=0;strokeColor=#0000FF;" parent="1" edge="1">
          <mxGeometry width="50" height="50" relative="1" as="geometry">
            <mxPoint x="350.20000000000005" y="190" as="sourcePoint" />
            <mxPoint x="410.20000000000005" y="190" as="targetPoint" />
          </mxGeometry>
        </mxCell>
        <mxCell id="rEkYpKIjq7FoAjk0Uec6-41" value="" style="endArrow=none;html=1;rounded=0;strokeColor=#0000FF;" parent="1" edge="1">
          <mxGeometry width="50" height="50" relative="1" as="geometry">
            <mxPoint x="410.20000000000005" y="210" as="sourcePoint" />
            <mxPoint x="430.20000000000005" y="210" as="targetPoint" />
          </mxGeometry>
        </mxCell>
        <mxCell id="rEkYpKIjq7FoAjk0Uec6-42" value="" style="endArrow=none;html=1;rounded=0;strokeColor=#0000FF;" parent="1" edge="1">
          <mxGeometry width="50" height="50" relative="1" as="geometry">
            <mxPoint x="430" y="210" as="sourcePoint" />
            <mxPoint x="430" y="230" as="targetPoint" />
          </mxGeometry>
        </mxCell>
        <mxCell id="rEkYpKIjq7FoAjk0Uec6-43" value="" style="endArrow=none;html=1;rounded=0;strokeColor=#0000FF;" parent="1" edge="1">
          <mxGeometry width="50" height="50" relative="1" as="geometry">
            <mxPoint x="410.20000000000005" y="190" as="sourcePoint" />
            <mxPoint x="410.20000000000005" y="210" as="targetPoint" />
          </mxGeometry>
        </mxCell>
        <mxCell id="rEkYpKIjq7FoAjk0Uec6-44" value="" style="endArrow=none;html=1;rounded=0;strokeColor=#0000FF;" parent="1" edge="1">
          <mxGeometry width="50" height="50" relative="1" as="geometry">
            <mxPoint x="430.20000000000005" y="230" as="sourcePoint" />
            <mxPoint x="490.20000000000005" y="230" as="targetPoint" />
          </mxGeometry>
        </mxCell>
        <mxCell id="rEkYpKIjq7FoAjk0Uec6-45" value="" style="endArrow=none;html=1;rounded=0;strokeColor=#0000FF;" parent="1" edge="1">
          <mxGeometry width="50" height="50" relative="1" as="geometry">
            <mxPoint x="490.20000000000005" y="210" as="sourcePoint" />
            <mxPoint x="490.20000000000005" y="230" as="targetPoint" />
          </mxGeometry>
        </mxCell>
        <mxCell id="rEkYpKIjq7FoAjk0Uec6-46" value="" style="endArrow=none;html=1;rounded=0;strokeColor=#0000FF;" parent="1" edge="1">
          <mxGeometry width="50" height="50" relative="1" as="geometry">
            <mxPoint x="490.20000000000005" y="210" as="sourcePoint" />
            <mxPoint x="530.2" y="210" as="targetPoint" />
          </mxGeometry>
        </mxCell>
        <mxCell id="rEkYpKIjq7FoAjk0Uec6-48" value="" style="endArrow=none;html=1;rounded=0;strokeColor=#0000FF;" parent="1" edge="1">
          <mxGeometry width="50" height="50" relative="1" as="geometry">
            <mxPoint x="530.2" y="210" as="sourcePoint" />
            <mxPoint x="530.2" y="230" as="targetPoint" />
          </mxGeometry>
        </mxCell>
        <mxCell id="rEkYpKIjq7FoAjk0Uec6-50" value="" style="endArrow=none;html=1;rounded=0;exitX=1;exitY=0.5;exitDx=0;exitDy=0;strokeColor=#0000FF;" parent="1" edge="1">
          <mxGeometry width="50" height="50" relative="1" as="geometry">
            <mxPoint x="395.20000000000005" y="270" as="sourcePoint" />
            <mxPoint x="450.20000000000005" y="270" as="targetPoint" />
          </mxGeometry>
        </mxCell>
        <mxCell id="rEkYpKIjq7FoAjk0Uec6-51" value="" style="endArrow=none;html=1;rounded=0;strokeColor=#0000FF;" parent="1" edge="1">
          <mxGeometry width="50" height="50" relative="1" as="geometry">
            <mxPoint x="450.20000000000005" y="270" as="sourcePoint" />
            <mxPoint x="450.20000000000005" y="290" as="targetPoint" />
          </mxGeometry>
        </mxCell>
        <mxCell id="rEkYpKIjq7FoAjk0Uec6-52" value="" style="endArrow=none;html=1;rounded=0;strokeColor=#0000FF;" parent="1" edge="1">
          <mxGeometry width="50" height="50" relative="1" as="geometry">
            <mxPoint x="450.20000000000005" y="290" as="sourcePoint" />
            <mxPoint x="470.20000000000005" y="290" as="targetPoint" />
          </mxGeometry>
        </mxCell>
        <mxCell id="rEkYpKIjq7FoAjk0Uec6-53" value="" style="endArrow=none;html=1;rounded=0;strokeColor=#0000FF;" parent="1" edge="1">
          <mxGeometry width="50" height="50" relative="1" as="geometry">
            <mxPoint x="469.79999999999995" y="270" as="sourcePoint" />
            <mxPoint x="469.79999999999995" y="290" as="targetPoint" />
          </mxGeometry>
        </mxCell>
        <mxCell id="rEkYpKIjq7FoAjk0Uec6-54" value="" style="endArrow=none;html=1;rounded=0;strokeColor=#0000FF;" parent="1" edge="1">
          <mxGeometry width="50" height="50" relative="1" as="geometry">
            <mxPoint x="470.20000000000005" y="269.8" as="sourcePoint" />
            <mxPoint x="490.20000000000005" y="269.8" as="targetPoint" />
          </mxGeometry>
        </mxCell>
        <mxCell id="rEkYpKIjq7FoAjk0Uec6-55" value="" style="endArrow=none;html=1;rounded=0;strokeColor=#0000FF;" parent="1" edge="1">
          <mxGeometry width="50" height="50" relative="1" as="geometry">
            <mxPoint x="490.4" y="270" as="sourcePoint" />
            <mxPoint x="490.20000000000005" y="370" as="targetPoint" />
          </mxGeometry>
        </mxCell>
        <mxCell id="rEkYpKIjq7FoAjk0Uec6-56" value="" style="endArrow=none;html=1;rounded=0;strokeColor=#0000FF;" parent="1" edge="1">
          <mxGeometry width="50" height="50" relative="1" as="geometry">
            <mxPoint x="430.20000000000005" y="370" as="sourcePoint" />
            <mxPoint x="490.20000000000005" y="370" as="targetPoint" />
          </mxGeometry>
        </mxCell>
        <mxCell id="rEkYpKIjq7FoAjk0Uec6-57" value="" style="endArrow=none;html=1;rounded=0;strokeColor=#0000FF;" parent="1" edge="1">
          <mxGeometry width="50" height="50" relative="1" as="geometry">
            <mxPoint x="430.20000000000005" y="370" as="sourcePoint" />
            <mxPoint x="430.20000000000005" y="450" as="targetPoint" />
          </mxGeometry>
        </mxCell>
        <mxCell id="rEkYpKIjq7FoAjk0Uec6-58" value="" style="endArrow=none;html=1;rounded=0;strokeColor=#0000FF;" parent="1" edge="1">
          <mxGeometry width="50" height="50" relative="1" as="geometry">
            <mxPoint x="430.20000000000005" y="449.8" as="sourcePoint" />
            <mxPoint x="470.20000000000005" y="449.8" as="targetPoint" />
          </mxGeometry>
        </mxCell>
        <mxCell id="rEkYpKIjq7FoAjk0Uec6-59" value="" style="endArrow=none;html=1;rounded=0;strokeColor=#0000FF;" parent="1" edge="1">
          <mxGeometry width="50" height="50" relative="1" as="geometry">
            <mxPoint x="470.20000000000005" y="410" as="sourcePoint" />
            <mxPoint x="470.4" y="450" as="targetPoint" />
          </mxGeometry>
        </mxCell>
        <mxCell id="rEkYpKIjq7FoAjk0Uec6-60" value="" style="endArrow=none;html=1;rounded=0;strokeColor=#0000FF;" parent="1" edge="1">
          <mxGeometry width="50" height="50" relative="1" as="geometry">
            <mxPoint x="470.20000000000005" y="410" as="sourcePoint" />
            <mxPoint x="510.20000000000005" y="410" as="targetPoint" />
          </mxGeometry>
        </mxCell>
        <mxCell id="rEkYpKIjq7FoAjk0Uec6-61" value="" style="endArrow=none;html=1;rounded=0;strokeColor=#0000FF;" parent="1" edge="1">
          <mxGeometry width="50" height="50" relative="1" as="geometry">
            <mxPoint x="510.20000000000005" y="410" as="sourcePoint" />
            <mxPoint x="510.4000000000001" y="450" as="targetPoint" />
          </mxGeometry>
        </mxCell>
        <mxCell id="rEkYpKIjq7FoAjk0Uec6-62" value="" style="endArrow=none;html=1;rounded=0;strokeColor=#0000FF;" parent="1" edge="1">
          <mxGeometry width="50" height="50" relative="1" as="geometry">
            <mxPoint x="530.2" y="449.79999999999995" as="sourcePoint" />
            <mxPoint x="530.2" y="449.8" as="targetPoint" />
          </mxGeometry>
        </mxCell>
        <mxCell id="rEkYpKIjq7FoAjk0Uec6-66" value="" style="endArrow=none;html=1;rounded=0;strokeColor=#0000FF;" parent="1" edge="1">
          <mxGeometry width="50" height="50" relative="1" as="geometry">
            <mxPoint x="510.20000000000005" y="449.8" as="sourcePoint" />
            <mxPoint x="525.2" y="450" as="targetPoint" />
          </mxGeometry>
        </mxCell>
        <mxCell id="rEkYpKIjq7FoAjk0Uec6-71" value="" style="endArrow=none;html=1;rounded=0;" parent="1" edge="1">
          <mxGeometry width="50" height="50" relative="1" as="geometry">
            <mxPoint x="300" y="460" as="sourcePoint" />
            <mxPoint x="300" y="440" as="targetPoint" />
          </mxGeometry>
        </mxCell>
        <mxCell id="rEkYpKIjq7FoAjk0Uec6-72" value="" style="endArrow=none;html=1;rounded=0;" parent="1" edge="1">
          <mxGeometry width="50" height="50" relative="1" as="geometry">
            <mxPoint x="340" y="460" as="sourcePoint" />
            <mxPoint x="340" y="440" as="targetPoint" />
          </mxGeometry>
        </mxCell>
        <mxCell id="rEkYpKIjq7FoAjk0Uec6-73" value="" style="endArrow=none;html=1;rounded=0;" parent="1" edge="1">
          <mxGeometry width="50" height="50" relative="1" as="geometry">
            <mxPoint x="500" y="460" as="sourcePoint" />
            <mxPoint x="500" y="420" as="targetPoint" />
          </mxGeometry>
        </mxCell>
        <mxCell id="rEkYpKIjq7FoAjk0Uec6-74" value="" style="endArrow=none;html=1;rounded=0;" parent="1" edge="1">
          <mxGeometry width="50" height="50" relative="1" as="geometry">
            <mxPoint x="320" y="440" as="sourcePoint" />
            <mxPoint x="340" y="440" as="targetPoint" />
          </mxGeometry>
        </mxCell>
        <mxCell id="rEkYpKIjq7FoAjk0Uec6-76" value="" style="whiteSpace=wrap;html=1;aspect=fixed;fillColor=#CCCCCC;" parent="1" vertex="1">
          <mxGeometry x="240" y="400" width="20" height="20" as="geometry" />
        </mxCell>
        <mxCell id="rEkYpKIjq7FoAjk0Uec6-77" value="" style="whiteSpace=wrap;html=1;aspect=fixed;fillColor=#CCCCCC;" parent="1" vertex="1">
          <mxGeometry x="240" y="360" width="20" height="20" as="geometry" />
        </mxCell>
        <mxCell id="rEkYpKIjq7FoAjk0Uec6-78" value="" style="whiteSpace=wrap;html=1;aspect=fixed;fillColor=#CCCCCC;" parent="1" vertex="1">
          <mxGeometry x="240" y="320" width="20" height="20" as="geometry" />
        </mxCell>
        <mxCell id="rEkYpKIjq7FoAjk0Uec6-79" value="" style="whiteSpace=wrap;html=1;aspect=fixed;fillColor=#CCCCCC;" parent="1" vertex="1">
          <mxGeometry x="260" y="320" width="20" height="20" as="geometry" />
        </mxCell>
        <mxCell id="rEkYpKIjq7FoAjk0Uec6-80" value="" style="whiteSpace=wrap;html=1;aspect=fixed;fillColor=#CCCCCC;" parent="1" vertex="1">
          <mxGeometry x="300" y="280" width="20" height="20" as="geometry" />
        </mxCell>
        <mxCell id="rEkYpKIjq7FoAjk0Uec6-81" value="" style="whiteSpace=wrap;html=1;aspect=fixed;fillColor=#CCCCCC;" parent="1" vertex="1">
          <mxGeometry x="320" y="300" width="20" height="20" as="geometry" />
        </mxCell>
        <mxCell id="rEkYpKIjq7FoAjk0Uec6-82" value="" style="whiteSpace=wrap;html=1;aspect=fixed;fillColor=#CCCCCC;" parent="1" vertex="1">
          <mxGeometry x="300" y="240" width="20" height="20" as="geometry" />
        </mxCell>
        <mxCell id="rEkYpKIjq7FoAjk0Uec6-83" value="" style="whiteSpace=wrap;html=1;aspect=fixed;fillColor=#CCCCCC;" parent="1" vertex="1">
          <mxGeometry x="240" y="220" width="20" height="20" as="geometry" />
        </mxCell>
        <mxCell id="rEkYpKIjq7FoAjk0Uec6-84" value="" style="whiteSpace=wrap;html=1;aspect=fixed;fillColor=#CCCCCC;" parent="1" vertex="1">
          <mxGeometry x="240" y="180" width="20" height="20" as="geometry" />
        </mxCell>
        <mxCell id="rEkYpKIjq7FoAjk0Uec6-85" value="" style="whiteSpace=wrap;html=1;aspect=fixed;fillColor=#CCCCCC;" parent="1" vertex="1">
          <mxGeometry x="260" y="160" width="20" height="20" as="geometry" />
        </mxCell>
        <mxCell id="rEkYpKIjq7FoAjk0Uec6-86" value="" style="whiteSpace=wrap;html=1;aspect=fixed;fillColor=#CCCCCC;" parent="1" vertex="1">
          <mxGeometry x="280" y="180" width="20" height="20" as="geometry" />
        </mxCell>
        <mxCell id="rEkYpKIjq7FoAjk0Uec6-87" value="" style="whiteSpace=wrap;html=1;aspect=fixed;fillColor=#CCCCCC;" parent="1" vertex="1">
          <mxGeometry x="320" y="180" width="20" height="20" as="geometry" />
        </mxCell>
        <mxCell id="rEkYpKIjq7FoAjk0Uec6-88" value="" style="whiteSpace=wrap;html=1;aspect=fixed;fillColor=#CCCCCC;" parent="1" vertex="1">
          <mxGeometry x="380" y="160" width="20" height="20" as="geometry" />
        </mxCell>
        <mxCell id="rEkYpKIjq7FoAjk0Uec6-89" value="" style="whiteSpace=wrap;html=1;aspect=fixed;fillColor=#CCCCCC;" parent="1" vertex="1">
          <mxGeometry x="420" y="180" width="20" height="20" as="geometry" />
        </mxCell>
        <mxCell id="rEkYpKIjq7FoAjk0Uec6-90" value="" style="whiteSpace=wrap;html=1;aspect=fixed;fillColor=#CCCCCC;" parent="1" vertex="1">
          <mxGeometry x="460" y="180" width="20" height="20" as="geometry" />
        </mxCell>
        <mxCell id="rEkYpKIjq7FoAjk0Uec6-91" value="" style="whiteSpace=wrap;html=1;aspect=fixed;fillColor=#CCCCCC;" parent="1" vertex="1">
          <mxGeometry x="480" y="160" width="20" height="20" as="geometry" />
        </mxCell>
        <mxCell id="rEkYpKIjq7FoAjk0Uec6-92" value="" style="whiteSpace=wrap;html=1;aspect=fixed;fillColor=#CCCCCC;" parent="1" vertex="1">
          <mxGeometry x="500" y="220" width="20" height="20" as="geometry" />
        </mxCell>
        <mxCell id="rEkYpKIjq7FoAjk0Uec6-93" value="" style="whiteSpace=wrap;html=1;aspect=fixed;fillColor=#CCCCCC;" parent="1" vertex="1">
          <mxGeometry x="500" y="240" width="20" height="20" as="geometry" />
        </mxCell>
        <mxCell id="rEkYpKIjq7FoAjk0Uec6-94" value="" style="whiteSpace=wrap;html=1;aspect=fixed;fillColor=#CCCCCC;" parent="1" vertex="1">
          <mxGeometry x="520" y="240" width="20" height="20" as="geometry" />
        </mxCell>
        <mxCell id="rEkYpKIjq7FoAjk0Uec6-95" value="" style="whiteSpace=wrap;html=1;aspect=fixed;fillColor=#CCCCCC;" parent="1" vertex="1">
          <mxGeometry x="520" y="260" width="20" height="20" as="geometry" />
        </mxCell>
        <mxCell id="rEkYpKIjq7FoAjk0Uec6-96" value="" style="whiteSpace=wrap;html=1;aspect=fixed;fillColor=#CCCCCC;" parent="1" vertex="1">
          <mxGeometry x="500" y="260" width="20" height="20" as="geometry" />
        </mxCell>
        <mxCell id="rEkYpKIjq7FoAjk0Uec6-97" value="" style="whiteSpace=wrap;html=1;aspect=fixed;fillColor=#CCCCCC;" parent="1" vertex="1">
          <mxGeometry x="500" y="280" width="20" height="20" as="geometry" />
        </mxCell>
        <mxCell id="rEkYpKIjq7FoAjk0Uec6-98" value="" style="whiteSpace=wrap;html=1;aspect=fixed;fillColor=#CCCCCC;" parent="1" vertex="1">
          <mxGeometry x="520" y="280" width="20" height="20" as="geometry" />
        </mxCell>
        <mxCell id="rEkYpKIjq7FoAjk0Uec6-100" value="" style="whiteSpace=wrap;html=1;aspect=fixed;fillColor=#CCCCCC;" parent="1" vertex="1">
          <mxGeometry x="500" y="300" width="20" height="20" as="geometry" />
        </mxCell>
        <mxCell id="rEkYpKIjq7FoAjk0Uec6-101" value="" style="whiteSpace=wrap;html=1;aspect=fixed;fillColor=#CCCCCC;" parent="1" vertex="1">
          <mxGeometry x="460" y="300" width="20" height="20" as="geometry" />
        </mxCell>
        <mxCell id="rEkYpKIjq7FoAjk0Uec6-102" value="" style="whiteSpace=wrap;html=1;aspect=fixed;fillColor=#CCCCCC;" parent="1" vertex="1">
          <mxGeometry x="440" y="300" width="20" height="20" as="geometry" />
        </mxCell>
        <mxCell id="rEkYpKIjq7FoAjk0Uec6-103" value="" style="whiteSpace=wrap;html=1;aspect=fixed;fillColor=#CCCCCC;" parent="1" vertex="1">
          <mxGeometry x="420" y="320" width="20" height="20" as="geometry" />
        </mxCell>
        <mxCell id="rEkYpKIjq7FoAjk0Uec6-104" value="" style="whiteSpace=wrap;html=1;aspect=fixed;fillColor=#CCCCCC;" parent="1" vertex="1">
          <mxGeometry x="520" y="360" width="20" height="20" as="geometry" />
        </mxCell>
        <mxCell id="rEkYpKIjq7FoAjk0Uec6-105" value="" style="whiteSpace=wrap;html=1;aspect=fixed;fillColor=#CCCCCC;" parent="1" vertex="1">
          <mxGeometry x="520" y="400" width="20" height="20" as="geometry" />
        </mxCell>
        <mxCell id="rEkYpKIjq7FoAjk0Uec6-106" value="" style="whiteSpace=wrap;html=1;aspect=fixed;fillColor=#CCCCCC;" parent="1" vertex="1">
          <mxGeometry x="380" y="420" width="20" height="20" as="geometry" />
        </mxCell>
        <mxCell id="rEkYpKIjq7FoAjk0Uec6-107" value="" style="whiteSpace=wrap;html=1;aspect=fixed;fillColor=#CCCCCC;" parent="1" vertex="1">
          <mxGeometry x="400" y="420" width="20" height="20" as="geometry" />
        </mxCell>
        <mxCell id="rEkYpKIjq7FoAjk0Uec6-109" value="" style="whiteSpace=wrap;html=1;aspect=fixed;fillColor=#CCCCCC;" parent="1" vertex="1">
          <mxGeometry x="340" y="400" width="20" height="20" as="geometry" />
        </mxCell>
        <mxCell id="rEkYpKIjq7FoAjk0Uec6-110" value="" style="whiteSpace=wrap;html=1;aspect=fixed;fillColor=#CCCCCC;" parent="1" vertex="1">
          <mxGeometry x="340" y="360" width="20" height="20" as="geometry" />
        </mxCell>
        <mxCell id="rEkYpKIjq7FoAjk0Uec6-111" value="" style="endArrow=none;html=1;rounded=0;entryX=1;entryY=1;entryDx=0;entryDy=0;" parent="1" target="rEkYpKIjq7FoAjk0Uec6-110" edge="1">
          <mxGeometry width="50" height="50" relative="1" as="geometry">
            <mxPoint x="360" y="400" as="sourcePoint" />
            <mxPoint x="410" y="350" as="targetPoint" />
          </mxGeometry>
        </mxCell>
        <mxCell id="rEkYpKIjq7FoAjk0Uec6-112" value="" style="endArrow=none;html=1;rounded=0;exitX=0;exitY=-0.12;exitDx=0;exitDy=0;exitPerimeter=0;" parent="1" edge="1">
          <mxGeometry width="50" height="50" relative="1" as="geometry">
            <mxPoint x="400" y="420" as="sourcePoint" />
            <mxPoint x="400" y="400" as="targetPoint" />
          </mxGeometry>
        </mxCell>
        <mxCell id="rEkYpKIjq7FoAjk0Uec6-114" value="" style="endArrow=none;html=1;rounded=0;entryX=1;entryY=1;entryDx=0;entryDy=0;" parent="1" edge="1">
          <mxGeometry width="50" height="50" relative="1" as="geometry">
            <mxPoint x="420" y="420" as="sourcePoint" />
            <mxPoint x="420" y="400" as="targetPoint" />
          </mxGeometry>
        </mxCell>
        <mxCell id="rEkYpKIjq7FoAjk0Uec6-115" value="" style="endArrow=none;html=1;rounded=0;" parent="1" edge="1">
          <mxGeometry width="50" height="50" relative="1" as="geometry">
            <mxPoint x="400" y="400" as="sourcePoint" />
            <mxPoint x="420" y="400" as="targetPoint" />
          </mxGeometry>
        </mxCell>
        <mxCell id="rEkYpKIjq7FoAjk0Uec6-116" value="" style="endArrow=none;html=1;rounded=0;" parent="1" edge="1">
          <mxGeometry width="50" height="50" relative="1" as="geometry">
            <mxPoint x="480" y="420" as="sourcePoint" />
            <mxPoint x="500" y="420" as="targetPoint" />
          </mxGeometry>
        </mxCell>
        <mxCell id="rEkYpKIjq7FoAjk0Uec6-117" value="" style="endArrow=none;html=1;rounded=0;exitX=0;exitY=-0.12;exitDx=0;exitDy=0;exitPerimeter=0;" parent="1" edge="1">
          <mxGeometry width="50" height="50" relative="1" as="geometry">
            <mxPoint x="480" y="440" as="sourcePoint" />
            <mxPoint x="480" y="420" as="targetPoint" />
          </mxGeometry>
        </mxCell>
        <mxCell id="rEkYpKIjq7FoAjk0Uec6-118" value="" style="endArrow=none;html=1;rounded=0;" parent="1" edge="1">
          <mxGeometry width="50" height="50" relative="1" as="geometry">
            <mxPoint x="400" y="340" as="sourcePoint" />
            <mxPoint x="420" y="340" as="targetPoint" />
          </mxGeometry>
        </mxCell>
        <mxCell id="rEkYpKIjq7FoAjk0Uec6-119" value="" style="endArrow=none;html=1;rounded=0;entryX=1;entryY=1;entryDx=0;entryDy=0;" parent="1" edge="1">
          <mxGeometry width="50" height="50" relative="1" as="geometry">
            <mxPoint x="420" y="360" as="sourcePoint" />
            <mxPoint x="420" y="340" as="targetPoint" />
          </mxGeometry>
        </mxCell>
        <mxCell id="rEkYpKIjq7FoAjk0Uec6-120" value="" style="endArrow=none;html=1;rounded=0;exitX=0;exitY=-0.12;exitDx=0;exitDy=0;exitPerimeter=0;" parent="1" edge="1">
          <mxGeometry width="50" height="50" relative="1" as="geometry">
            <mxPoint x="400" y="360" as="sourcePoint" />
            <mxPoint x="400" y="340" as="targetPoint" />
          </mxGeometry>
        </mxCell>
        <mxCell id="rEkYpKIjq7FoAjk0Uec6-121" value="" style="endArrow=none;html=1;rounded=0;" parent="1" edge="1">
          <mxGeometry width="50" height="50" relative="1" as="geometry">
            <mxPoint x="400" y="359.6" as="sourcePoint" />
            <mxPoint x="420" y="359.6" as="targetPoint" />
          </mxGeometry>
        </mxCell>
        <mxCell id="rEkYpKIjq7FoAjk0Uec6-122" value="" style="endArrow=none;html=1;rounded=0;entryX=1;entryY=1;entryDx=0;entryDy=0;" parent="1" edge="1">
          <mxGeometry width="50" height="50" relative="1" as="geometry">
            <mxPoint x="479.6" y="360" as="sourcePoint" />
            <mxPoint x="479.6" y="340" as="targetPoint" />
          </mxGeometry>
        </mxCell>
        <mxCell id="rEkYpKIjq7FoAjk0Uec6-123" value="" style="endArrow=none;html=1;rounded=0;" parent="1" edge="1">
          <mxGeometry width="50" height="50" relative="1" as="geometry">
            <mxPoint x="460" y="359.6" as="sourcePoint" />
            <mxPoint x="480" y="359.6" as="targetPoint" />
          </mxGeometry>
        </mxCell>
        <mxCell id="rEkYpKIjq7FoAjk0Uec6-124" value="" style="endArrow=none;html=1;rounded=0;exitX=0;exitY=-0.12;exitDx=0;exitDy=0;exitPerimeter=0;" parent="1" edge="1">
          <mxGeometry width="50" height="50" relative="1" as="geometry">
            <mxPoint x="460" y="360" as="sourcePoint" />
            <mxPoint x="460" y="340" as="targetPoint" />
          </mxGeometry>
        </mxCell>
        <mxCell id="rEkYpKIjq7FoAjk0Uec6-125" value="" style="endArrow=none;html=1;rounded=0;" parent="1" edge="1">
          <mxGeometry width="50" height="50" relative="1" as="geometry">
            <mxPoint x="460" y="340" as="sourcePoint" />
            <mxPoint x="480" y="340" as="targetPoint" />
          </mxGeometry>
        </mxCell>
        <mxCell id="rEkYpKIjq7FoAjk0Uec6-126" value="" style="endArrow=none;html=1;rounded=0;" parent="1" edge="1">
          <mxGeometry width="50" height="50" relative="1" as="geometry">
            <mxPoint x="520" y="339.6" as="sourcePoint" />
            <mxPoint x="540" y="339.6" as="targetPoint" />
          </mxGeometry>
        </mxCell>
        <mxCell id="rEkYpKIjq7FoAjk0Uec6-127" value="" style="endArrow=none;html=1;rounded=0;exitX=0;exitY=-0.12;exitDx=0;exitDy=0;exitPerimeter=0;" parent="1" edge="1">
          <mxGeometry width="50" height="50" relative="1" as="geometry">
            <mxPoint x="520" y="340" as="sourcePoint" />
            <mxPoint x="520" y="320" as="targetPoint" />
          </mxGeometry>
        </mxCell>
        <mxCell id="rEkYpKIjq7FoAjk0Uec6-128" value="" style="endArrow=none;html=1;rounded=0;" parent="1" edge="1">
          <mxGeometry width="50" height="50" relative="1" as="geometry">
            <mxPoint x="520" y="320" as="sourcePoint" />
            <mxPoint x="540" y="320" as="targetPoint" />
          </mxGeometry>
        </mxCell>
        <mxCell id="rEkYpKIjq7FoAjk0Uec6-129" value="" style="endArrow=none;html=1;rounded=0;" parent="1" edge="1">
          <mxGeometry width="50" height="50" relative="1" as="geometry">
            <mxPoint x="520" y="199.60000000000002" as="sourcePoint" />
            <mxPoint x="540" y="199.60000000000002" as="targetPoint" />
          </mxGeometry>
        </mxCell>
        <mxCell id="rEkYpKIjq7FoAjk0Uec6-130" value="" style="endArrow=none;html=1;rounded=0;exitX=0;exitY=-0.12;exitDx=0;exitDy=0;exitPerimeter=0;" parent="1" edge="1">
          <mxGeometry width="50" height="50" relative="1" as="geometry">
            <mxPoint x="520" y="200" as="sourcePoint" />
            <mxPoint x="520" y="180" as="targetPoint" />
          </mxGeometry>
        </mxCell>
        <mxCell id="rEkYpKIjq7FoAjk0Uec6-131" value="" style="endArrow=none;html=1;rounded=0;" parent="1" edge="1">
          <mxGeometry width="50" height="50" relative="1" as="geometry">
            <mxPoint x="520" y="180" as="sourcePoint" />
            <mxPoint x="540" y="180" as="targetPoint" />
          </mxGeometry>
        </mxCell>
        <mxCell id="rEkYpKIjq7FoAjk0Uec6-132" value="" style="endArrow=none;html=1;rounded=0;exitX=0;exitY=-0.12;exitDx=0;exitDy=0;exitPerimeter=0;" parent="1" edge="1">
          <mxGeometry width="50" height="50" relative="1" as="geometry">
            <mxPoint x="320" y="180" as="sourcePoint" />
            <mxPoint x="320" y="160" as="targetPoint" />
          </mxGeometry>
        </mxCell>
        <mxCell id="rEkYpKIjq7FoAjk0Uec6-134" value="" style="endArrow=none;html=1;rounded=0;exitX=0;exitY=-0.12;exitDx=0;exitDy=0;exitPerimeter=0;" parent="1" edge="1">
          <mxGeometry width="50" height="50" relative="1" as="geometry">
            <mxPoint x="340" y="180" as="sourcePoint" />
            <mxPoint x="340" y="160" as="targetPoint" />
          </mxGeometry>
        </mxCell>
        <mxCell id="rEkYpKIjq7FoAjk0Uec6-135" value="" style="endArrow=none;html=1;rounded=0;exitX=0;exitY=-0.12;exitDx=0;exitDy=0;exitPerimeter=0;" parent="1" edge="1">
          <mxGeometry width="50" height="50" relative="1" as="geometry">
            <mxPoint x="260" y="220" as="sourcePoint" />
            <mxPoint x="260" y="200" as="targetPoint" />
          </mxGeometry>
        </mxCell>
        <mxCell id="rEkYpKIjq7FoAjk0Uec6-137" value="" style="endArrow=none;html=1;rounded=0;" parent="1" edge="1">
          <mxGeometry width="50" height="50" relative="1" as="geometry">
            <mxPoint x="260" y="200" as="sourcePoint" />
            <mxPoint x="280" y="200" as="targetPoint" />
          </mxGeometry>
        </mxCell>
        <mxCell id="rEkYpKIjq7FoAjk0Uec6-138" value="" style="endArrow=none;html=1;rounded=0;exitX=1;exitY=0;exitDx=0;exitDy=0;entryX=0;entryY=0;entryDx=0;entryDy=0;" parent="1" source="rEkYpKIjq7FoAjk0Uec6-82" target="rEkYpKIjq7FoAjk0Uec6-93" edge="1">
          <mxGeometry width="50" height="50" relative="1" as="geometry">
            <mxPoint x="410" y="315" as="sourcePoint" />
            <mxPoint x="460" y="265" as="targetPoint" />
          </mxGeometry>
        </mxCell>
        <mxCell id="rEkYpKIjq7FoAjk0Uec6-139" value="" style="endArrow=none;html=1;rounded=0;" parent="1" edge="1">
          <mxGeometry width="50" height="50" relative="1" as="geometry">
            <mxPoint x="360" y="220" as="sourcePoint" />
            <mxPoint x="400" y="219.6" as="targetPoint" />
          </mxGeometry>
        </mxCell>
        <mxCell id="rEkYpKIjq7FoAjk0Uec6-140" value="" style="endArrow=none;html=1;rounded=0;" parent="1" edge="1">
          <mxGeometry width="50" height="50" relative="1" as="geometry">
            <mxPoint x="360" y="200.4" as="sourcePoint" />
            <mxPoint x="400" y="200" as="targetPoint" />
          </mxGeometry>
        </mxCell>
        <mxCell id="rEkYpKIjq7FoAjk0Uec6-141" value="" style="endArrow=none;html=1;rounded=0;exitX=0;exitY=-0.12;exitDx=0;exitDy=0;exitPerimeter=0;" parent="1" edge="1">
          <mxGeometry width="50" height="50" relative="1" as="geometry">
            <mxPoint x="400" y="220" as="sourcePoint" />
            <mxPoint x="400" y="200" as="targetPoint" />
          </mxGeometry>
        </mxCell>
        <mxCell id="rEkYpKIjq7FoAjk0Uec6-142" value="" style="endArrow=none;html=1;rounded=0;exitX=1;exitY=0;exitDx=0;exitDy=0;" parent="1" source="rEkYpKIjq7FoAjk0Uec6-81" edge="1">
          <mxGeometry width="50" height="50" relative="1" as="geometry">
            <mxPoint x="395" y="320" as="sourcePoint" />
            <mxPoint x="340" y="240" as="targetPoint" />
          </mxGeometry>
        </mxCell>
        <mxCell id="rEkYpKIjq7FoAjk0Uec6-143" value="" style="endArrow=none;html=1;rounded=0;" parent="1" edge="1">
          <mxGeometry width="50" height="50" relative="1" as="geometry">
            <mxPoint x="259.6" y="280" as="sourcePoint" />
            <mxPoint x="279.6" y="280" as="targetPoint" />
          </mxGeometry>
        </mxCell>
        <mxCell id="rEkYpKIjq7FoAjk0Uec6-144" value="" style="endArrow=none;html=1;rounded=0;exitX=1;exitY=0;exitDx=0;exitDy=0;" parent="1" source="rEkYpKIjq7FoAjk0Uec6-79" edge="1">
          <mxGeometry width="50" height="50" relative="1" as="geometry">
            <mxPoint x="285.4" y="325" as="sourcePoint" />
            <mxPoint x="280" y="280" as="targetPoint" />
          </mxGeometry>
        </mxCell>
        <mxCell id="rEkYpKIjq7FoAjk0Uec6-145" value="" style="endArrow=none;html=1;rounded=0;" parent="1" edge="1">
          <mxGeometry width="50" height="50" relative="1" as="geometry">
            <mxPoint x="239.60000000000002" y="260" as="sourcePoint" />
            <mxPoint x="259.6" y="260" as="targetPoint" />
          </mxGeometry>
        </mxCell>
        <mxCell id="rEkYpKIjq7FoAjk0Uec6-146" value="" style="endArrow=none;html=1;rounded=0;" parent="1" edge="1">
          <mxGeometry width="50" height="50" relative="1" as="geometry">
            <mxPoint x="259.6" y="280" as="sourcePoint" />
            <mxPoint x="259.6" y="260" as="targetPoint" />
          </mxGeometry>
        </mxCell>
        <mxCell id="rEkYpKIjq7FoAjk0Uec6-147" value="" style="endArrow=none;html=1;rounded=0;exitX=1;exitY=0;exitDx=0;exitDy=0;" parent="1" edge="1">
          <mxGeometry width="50" height="50" relative="1" as="geometry">
            <mxPoint x="280" y="380" as="sourcePoint" />
            <mxPoint x="280" y="340" as="targetPoint" />
          </mxGeometry>
        </mxCell>
        <mxCell id="rEkYpKIjq7FoAjk0Uec6-148" value="" style="endArrow=none;html=1;rounded=0;" parent="1" edge="1">
          <mxGeometry width="50" height="50" relative="1" as="geometry">
            <mxPoint x="300" y="380" as="sourcePoint" />
            <mxPoint x="300" y="360" as="targetPoint" />
          </mxGeometry>
        </mxCell>
        <mxCell id="rEkYpKIjq7FoAjk0Uec6-150" value="" style="endArrow=none;html=1;rounded=0;" parent="1" edge="1">
          <mxGeometry width="50" height="50" relative="1" as="geometry">
            <mxPoint x="280" y="379.6" as="sourcePoint" />
            <mxPoint x="300" y="379.6" as="targetPoint" />
          </mxGeometry>
        </mxCell>
        <mxCell id="rEkYpKIjq7FoAjk0Uec6-151" value="" style="endArrow=none;html=1;rounded=0;entryX=0;entryY=0;entryDx=0;entryDy=0;" parent="1" target="rEkYpKIjq7FoAjk0Uec6-110" edge="1">
          <mxGeometry width="50" height="50" relative="1" as="geometry">
            <mxPoint x="300" y="360" as="sourcePoint" />
            <mxPoint x="320" y="360" as="targetPoint" />
          </mxGeometry>
        </mxCell>
        <mxCell id="rEkYpKIjq7FoAjk0Uec6-152" value="" style="endArrow=none;html=1;rounded=0;" parent="1" edge="1">
          <mxGeometry width="50" height="50" relative="1" as="geometry">
            <mxPoint x="300" y="340" as="sourcePoint" />
            <mxPoint x="360" y="340" as="targetPoint" />
          </mxGeometry>
        </mxCell>
        <mxCell id="rEkYpKIjq7FoAjk0Uec6-153" value="" style="endArrow=none;html=1;rounded=0;entryX=1;entryY=1;entryDx=0;entryDy=0;" parent="1" edge="1">
          <mxGeometry width="50" height="50" relative="1" as="geometry">
            <mxPoint x="360" y="360" as="sourcePoint" />
            <mxPoint x="360" y="340" as="targetPoint" />
          </mxGeometry>
        </mxCell>
        <mxCell id="rEkYpKIjq7FoAjk0Uec6-154" value="" style="endArrow=none;html=1;rounded=0;" parent="1" edge="1">
          <mxGeometry width="50" height="50" relative="1" as="geometry">
            <mxPoint x="320" y="380" as="sourcePoint" />
            <mxPoint x="340" y="380" as="targetPoint" />
          </mxGeometry>
        </mxCell>
        <mxCell id="rEkYpKIjq7FoAjk0Uec6-155" value="" style="endArrow=none;html=1;rounded=0;entryX=1;entryY=1;entryDx=0;entryDy=0;" parent="1" edge="1">
          <mxGeometry width="50" height="50" relative="1" as="geometry">
            <mxPoint x="400" y="260" as="sourcePoint" />
            <mxPoint x="400" y="240" as="targetPoint" />
          </mxGeometry>
        </mxCell>
        <mxCell id="rEkYpKIjq7FoAjk0Uec6-156" value="" style="endArrow=none;html=1;rounded=0;" parent="1" edge="1">
          <mxGeometry width="50" height="50" relative="1" as="geometry">
            <mxPoint x="400" y="259.6" as="sourcePoint" />
            <mxPoint x="460" y="259.6" as="targetPoint" />
          </mxGeometry>
        </mxCell>
        <mxCell id="rEkYpKIjq7FoAjk0Uec6-1" value="" style="ellipse;whiteSpace=wrap;html=1;aspect=fixed;fillColor=#000000;strokeColor=#000000;" parent="1" vertex="1">
          <mxGeometry x="385" y="265" width="10" height="10" as="geometry" />
        </mxCell>
        <mxCell id="rEkYpKIjq7FoAjk0Uec6-30" value="" style="ellipse;whiteSpace=wrap;html=1;aspect=fixed;fillColor=#FFFFFF;strokeColor=#FF0000;" parent="1" vertex="1">
          <mxGeometry x="285" y="445" width="10" height="10" as="geometry" />
        </mxCell>
        <mxCell id="rEkYpKIjq7FoAjk0Uec6-49" value="" style="ellipse;whiteSpace=wrap;html=1;aspect=fixed;fillColor=#FFFFFF;strokeColor=#FF0000;" parent="1" vertex="1">
          <mxGeometry x="525" y="225" width="10" height="10" as="geometry" />
        </mxCell>
        <mxCell id="rEkYpKIjq7FoAjk0Uec6-64" value="" style="ellipse;whiteSpace=wrap;html=1;aspect=fixed;fillColor=default;strokeColor=#FF0000;" parent="1" vertex="1">
          <mxGeometry x="525" y="445" width="10" height="10" as="geometry" />
        </mxCell>
        <mxCell id="rEkYpKIjq7FoAjk0Uec6-67" value="" style="whiteSpace=wrap;html=1;aspect=fixed;fillColor=none;strokeColor=#000000;" parent="1" vertex="1">
          <mxGeometry x="580" y="480" width="300" height="300" as="geometry" />
        </mxCell>
        <mxCell id="gWwUZSpnTG0JG0der0zk-2" value="h" style="ellipse;whiteSpace=wrap;html=1;aspect=fixed;strokeColor=#0000FF;fontColor=#0000FF;fontFamily=&quot;Latin Mono Regular 12&quot;;" vertex="1" parent="1">
          <mxGeometry x="575" y="225" width="16" height="16" as="geometry" />
        </mxCell>
        <mxCell id="gWwUZSpnTG0JG0der0zk-3" value="32" style="ellipse;whiteSpace=wrap;html=1;aspect=fixed;strokeColor=#0000FF;fontColor=#0000FF;fontFamily=&quot;Latin Mono Regular 12&quot;;" vertex="1" parent="1">
          <mxGeometry x="522" y="202" width="16" height="16" as="geometry" />
        </mxCell>
        <mxCell id="gWwUZSpnTG0JG0der0zk-4" value="31" style="ellipse;whiteSpace=wrap;html=1;aspect=fixed;strokeColor=#0000FF;fontColor=#0000FF;fontFamily=&quot;Latin Mono Regular 12&quot;;" vertex="1" parent="1">
          <mxGeometry x="502" y="202" width="16" height="16" as="geometry" />
        </mxCell>
        <mxCell id="gWwUZSpnTG0JG0der0zk-5" value="12" style="ellipse;whiteSpace=wrap;html=1;aspect=fixed;strokeColor=#0000FF;fontColor=#0000FF;fontFamily=&quot;Latin Mono Regular 12&quot;;" vertex="1" parent="1">
          <mxGeometry x="282" y="282" width="16" height="16" as="geometry" />
        </mxCell>
        <mxCell id="gWwUZSpnTG0JG0der0zk-8" value="13" style="ellipse;whiteSpace=wrap;html=1;aspect=fixed;strokeColor=#0000FF;fontColor=#0000FF;fontFamily=&quot;Latin Mono Regular 12&quot;;" vertex="1" parent="1">
          <mxGeometry x="282" y="262" width="16" height="16" as="geometry" />
        </mxCell>
        <mxCell id="gWwUZSpnTG0JG0der0zk-9" value="11" style="ellipse;whiteSpace=wrap;html=1;aspect=fixed;strokeColor=#0000FF;fontColor=#0000FF;fontFamily=&quot;Latin Mono Regular 12&quot;;" vertex="1" parent="1">
          <mxGeometry x="282" y="302" width="16" height="16" as="geometry" />
        </mxCell>
        <mxCell id="gWwUZSpnTG0JG0der0zk-10" value="9" style="ellipse;whiteSpace=wrap;html=1;aspect=fixed;strokeColor=#0000FF;fontColor=#0000FF;fontFamily=&quot;Latin Mono Regular 12&quot;;" vertex="1" parent="1">
          <mxGeometry x="302" y="322" width="16" height="16" as="geometry" />
        </mxCell>
        <mxCell id="gWwUZSpnTG0JG0der0zk-11" value="8" style="ellipse;whiteSpace=wrap;html=1;aspect=fixed;strokeColor=#0000FF;fontColor=#0000FF;fontFamily=&quot;Latin Mono Regular 12&quot;;" vertex="1" parent="1">
          <mxGeometry x="322" y="322" width="16" height="16" as="geometry" />
        </mxCell>
        <mxCell id="gWwUZSpnTG0JG0der0zk-12" value="7" style="ellipse;whiteSpace=wrap;html=1;aspect=fixed;strokeColor=#0000FF;fontColor=#0000FF;fontFamily=&quot;Latin Mono Regular 12&quot;;" vertex="1" parent="1">
          <mxGeometry x="342" y="322" width="16" height="16" as="geometry" />
        </mxCell>
        <mxCell id="gWwUZSpnTG0JG0der0zk-13" value="15" style="ellipse;whiteSpace=wrap;html=1;aspect=fixed;strokeColor=#0000FF;fontColor=#0000FF;fontFamily=&quot;Latin Mono Regular 12&quot;;" vertex="1" parent="1">
          <mxGeometry x="322" y="422" width="16" height="16" as="geometry" />
        </mxCell>
        <mxCell id="gWwUZSpnTG0JG0der0zk-14" value="14" style="ellipse;whiteSpace=wrap;html=1;aspect=fixed;strokeColor=#0000FF;fontColor=#0000FF;fontFamily=&quot;Latin Mono Regular 12&quot;;" vertex="1" parent="1">
          <mxGeometry x="342" y="422" width="16" height="16" as="geometry" />
        </mxCell>
        <mxCell id="gWwUZSpnTG0JG0der0zk-15" value="26" style="ellipse;whiteSpace=wrap;html=1;aspect=fixed;strokeColor=#0000FF;fontColor=#0000FF;fontFamily=&quot;Latin Mono Regular 12&quot;;" vertex="1" parent="1">
          <mxGeometry x="502" y="422" width="16" height="16" as="geometry" />
        </mxCell>
        <mxCell id="gWwUZSpnTG0JG0der0zk-16" value="25" style="ellipse;whiteSpace=wrap;html=1;aspect=fixed;strokeColor=#0000FF;fontColor=#0000FF;fontFamily=&quot;Latin Mono Regular 12&quot;;" vertex="1" parent="1">
          <mxGeometry x="502" y="402" width="16" height="16" as="geometry" />
        </mxCell>
      </root>
    </mxGraphModel>
  </diagram>
</mxfile>
